<svg xmlns="http://www.w3.org/2000/svg"  viewBox="0 0 100 100" width="100px" height="100px"><path d="M23.5,93C15.505,93,9,86.495,9,78.5v-53C9,17.505,15.505,11,23.5,11 h41.998c-0.661-1.585-0.679-3.403,0.021-5.048C66.548,3.549,68.894,2,71.5,2h22c3.584,0,6.5,2.916,6.5,6.5v23 c0,2.668-1.6,5.036-4.075,6.031C95.155,37.842,94.337,38,93.501,38C93.5,38,93.5,38,93.5,38c-0.863,0-1.714-0.175-2.5-0.503V78.5 C91,86.495,84.495,93,76.5,93H23.5z M91.895,20.431" opacity=".35"/><path fill="#f2f2f2" d="M21.5,91C13.505,91,7,84.495,7,76.5v-53C7,15.505,13.505,9,21.5,9h41.998 c-0.661-1.585-0.679-3.403,0.021-5.048C64.548,1.549,66.894,0,69.5,0h22C95.084,0,98,2.916,98,6.5v23 c0,2.668-1.6,5.036-4.075,6.031C93.155,35.842,92.337,36,91.501,36C91.5,36,91.5,36,91.5,36c-0.863,0-1.714-0.175-2.5-0.503V76.5 C89,84.495,82.495,91,74.5,91H21.5z M89.895,18.431"/><path fill="#d9eeff" d="M77.5,84.5h-59c-2.761,0-5-2.239-5-5v-59c0-2.761,2.239-5,5-5h59c2.761,0,5,2.239,5,5v59 C82.5,82.261,80.261,84.5,77.5,84.5z"/><path fill="none" stroke="#40396e" stroke-linecap="round" stroke-linejoin="round" stroke-miterlimit="10" stroke-width="3" d="M69.5,6.5l6.225,6.497L73.222,15.5H21.5c-4.418,0-8,3.582-8,8v53c0,4.418,3.582,8,8,8h53c4.418,0,8-3.582,8-8V25.778l2.775-2.775 L91.5,29.5v-23H69.5z"/><path fill="#70bfff" d="M43.09,47.753l33.695-33.695c0.576-0.576,0.587-1.507,0.024-2.096L73,8h17v18l-3.64-4.033 c-0.278-0.292-0.664-0.459-1.067-0.464c-0.006,0-0.012,0-0.018,0c-0.397,0-0.779,0.158-1.061,0.439L50.747,55.41L43.09,47.753z"/></svg>