<svg xmlns="http://www.w3.org/2000/svg"  viewBox="0 0 100 100" width="100px" height="100px"><path d="M89.244,16.204c-0.89-0.304-1.813-0.458-2.744-0.458c-2.605,0-5.022,1.189-6.632,3.264L53.09,53.5 c-0.297,0.382-0.545,0.788-0.768,1.203l-28.23-35.829c-1.609-2.042-4.011-3.214-6.59-3.214c-0.941,0-1.875,0.158-2.776,0.47 c-3.387,1.172-5.663,4.369-5.663,7.954v22.555c0,3.092,1.035,6.149,2.915,8.608l22.198,29.029c1.941,2.543,5.012,4.062,8.212,4.062 h19.084c3.251,0,6.153-1.817,7.572-4.741c1.42-2.926,1.053-6.33-0.96-8.888l-6.025-7.646h16.656c3.458,0,6.67-1.713,8.591-4.582 l5.887-8.789c1.142-1.703,1.745-3.687,1.745-5.736V24.161C94.937,20.568,92.651,17.371,89.244,16.204z" opacity=".35"/><path fill="#f2f2f2" d="M87.244,14.204c-0.89-0.304-1.813-0.458-2.744-0.458c-2.605,0-5.022,1.189-6.632,3.264L51.09,51.5 c-0.297,0.382-0.545,0.788-0.768,1.203l-28.23-35.829c-1.609-2.042-4.011-3.214-6.59-3.214c-0.941,0-1.875,0.158-2.776,0.47 c-3.387,1.172-5.663,4.369-5.663,7.954v22.555c0,3.092,1.035,6.149,2.915,8.608l22.198,29.029c1.941,2.543,5.012,4.062,8.212,4.062 h19.084c3.251,0,6.153-1.817,7.572-4.741c1.42-2.926,1.053-6.33-0.96-8.888l-6.025-7.646h16.656c3.458,0,6.67-1.713,8.591-4.582 l5.887-8.789c1.142-1.703,1.745-3.687,1.745-5.736V22.161C92.937,18.568,90.651,15.371,87.244,14.204z"/><path fill="#f4665c" d="M13.562,22.084v22.555c0,1.684,0.554,3.322,1.578,4.66l22.202,29.033 c0.725,0.949,1.851,1.505,3.045,1.505h19.084c1.601,0,2.497-1.847,1.505-3.105L16.986,20.897 C15.86,19.468,13.562,20.264,13.562,22.084z"/><path fill="#40396e" d="M59.472,81.338H40.388c-1.651,0-3.235-0.783-4.237-2.096L13.949,50.21 c-1.217-1.592-1.887-3.57-1.887-5.571V22.084c0-1.479,0.902-2.746,2.299-3.229c1.398-0.483,2.889-0.046,3.803,1.114l43.992,55.835 c0.816,1.037,0.967,2.42,0.39,3.608C61.97,80.6,60.792,81.338,59.472,81.338z M15.499,21.661c-0.049,0-0.101,0.009-0.155,0.028 c-0.187,0.064-0.281,0.197-0.281,0.395v22.555c0,1.347,0.451,2.678,1.27,3.749l22.202,29.033c0.438,0.574,1.131,0.917,1.854,0.917 h19.084c0.216,0,0.323-0.128,0.375-0.235c0.053-0.107,0.087-0.271-0.047-0.441L15.807,21.825 C15.721,21.716,15.618,21.661,15.499,21.661z"/><g><path fill="#f4665c" d="M83.003,20.995l-26.78,34.492c-0.974,1.254-0.075,3.075,1.519,3.075h18.972 c1.281,0,2.48-0.638,3.191-1.699l5.888-8.792c0.42-0.626,0.644-1.363,0.644-2.117V22.161C86.437,20.34,84.121,19.552,83.003,20.995 z"/><path fill="#40396e" d="M76.715,60.062H57.742c-1.317,0-2.495-0.733-3.073-1.914c-0.575-1.175-0.434-2.548,0.369-3.581 l26.779-34.491c0.91-1.173,2.406-1.62,3.812-1.141c1.402,0.48,2.309,1.746,2.309,3.226v23.794c0,1.055-0.311,2.075-0.898,2.952 l-5.888,8.791C80.16,59.179,78.501,60.062,76.715,60.062z M84.503,21.747c-0.103,0-0.216,0.04-0.314,0.167l-0.001,0.001 l-26.78,34.492c-0.127,0.163-0.094,0.319-0.043,0.422c0.052,0.106,0.159,0.233,0.378,0.233h18.973c0.784,0,1.511-0.387,1.944-1.034 l5.888-8.792c0.256-0.381,0.391-0.824,0.391-1.281V22.161c0-0.193-0.094-0.323-0.279-0.387 C84.612,21.759,84.56,21.747,84.503,21.747z"/></g></svg>