<svg xmlns="http://www.w3.org/2000/svg"  viewBox="0 0 100 100" width="100px" height="100px"><path d="M80.074,41.558c4.152-3.234,6.838-8.267,6.838-13.926c0-9.739-7.923-17.662-17.662-17.662 c-5.298,0-10.046,2.356-13.286,6.062C53.341,13.541,49.807,12,45.912,12c-4.194,0-7.971,1.786-10.64,4.625 c-2.119-1.621-4.757-2.595-7.625-2.595c-6.941,0-12.589,5.646-12.589,12.588c0,3.451,1.398,6.58,3.654,8.856 C14.084,38.433,11,43.606,11,49.496V64.5c0,1.74,0.679,3.375,1.905,4.597C14.132,70.324,15.764,71,17.511,71l12.354-0.021v3.572 c0,3.576,2.909,6.491,6.487,6.5L46,81.07v6.459c0,3.584,2.916,6.5,6.5,6.5h34c3.584,0,6.5-2.916,6.5-6.5V62.688 C93,53.49,87.74,45.502,80.074,41.558z" opacity=".35"/><path fill="#f2f2f2" d="M78.074,39.558c4.152-3.234,6.838-8.267,6.838-13.926c0-9.739-7.923-17.662-17.662-17.662 c-5.298,0-10.046,2.356-13.286,6.062C51.341,11.541,47.807,10,43.912,10c-4.194,0-7.971,1.786-10.64,4.625 c-2.119-1.621-4.757-2.595-7.625-2.595c-6.941,0-12.589,5.646-12.589,12.588c0,3.451,1.398,6.58,3.654,8.856 C12.084,36.433,9,41.606,9,47.496V62.5c0,1.74,0.679,3.375,1.905,4.597C12.132,68.324,13.764,69,15.511,69l12.354-0.021v3.572 c0,3.576,2.909,6.491,6.487,6.5L44,79.07v6.459c0,3.584,2.916,6.5,6.5,6.5h34c3.584,0,6.5-2.916,6.5-6.5V60.688 C91,51.49,85.74,43.502,78.074,39.558z"/><circle cx="67.25" cy="25.632" r="11.162" fill="#707cc0"/><path fill="#40396e" d="M67.25,38.294c-6.981,0-12.662-5.68-12.662-12.661s5.681-12.662,12.662-12.662 s12.662,5.681,12.662,12.662S74.231,38.294,67.25,38.294z M67.25,15.971c-5.328,0-9.662,4.334-9.662,9.662 c0,5.327,4.334,9.661,9.662,9.661s9.662-4.334,9.662-9.661C76.912,20.305,72.578,15.971,67.25,15.971z"/><circle cx="43.912" cy="24.618" r="8.118" fill="#707cc0" transform="rotate(-13.286 43.902 24.614)"/><path fill="#40396e" d="M43.912,34.235c-5.304,0-9.618-4.314-9.618-9.618c0-5.303,4.314-9.617,9.618-9.617 c5.303,0,9.617,4.314,9.617,9.617C53.529,29.921,49.215,34.235,43.912,34.235z M43.912,18c-3.649,0-6.618,2.969-6.618,6.617 c0,3.649,2.969,6.618,6.618,6.618c3.648,0,6.617-2.969,6.617-6.618C50.529,20.969,47.561,18,43.912,18z"/><g><circle cx="25.647" cy="24.618" r="6.088" fill="#707cc0" transform="rotate(-13.286 25.64 24.613)"/><path fill="#40396e" d="M25.647,32.206c-4.185,0-7.589-3.404-7.589-7.589c0-4.184,3.404-7.588,7.589-7.588 c4.184,0,7.588,3.404,7.588,7.588C33.235,28.802,29.831,32.206,25.647,32.206z M25.647,20.029c-2.53,0-4.589,2.059-4.589,4.588 c0,2.53,2.059,4.589,4.589,4.589c2.529,0,4.588-2.059,4.588-4.589C30.235,22.088,28.177,20.029,25.647,20.029z"/></g><g><path fill="#707cc0" d="M67.25,43.438c-4.424,0-8.447,1.68-11.5,4.419c-1.203-4.865-5.585-8.478-10.823-8.478 c-4.037,0-7.562,2.15-9.522,5.36c-1.203-4.262-5.111-7.389-9.758-7.389c-5.603,0-10.147,4.542-10.147,10.147V62.5l18.865-0.031 v10.083L50.5,72.583v12.946h34V60.688C84.5,51.161,76.776,43.438,67.25,43.438z"/><path fill="#40396e" d="M84.5,87.029h-34c-0.828,0-1.5-0.672-1.5-1.5V74.08l-14.639-0.028 c-0.827-0.002-1.497-0.673-1.497-1.5v-8.58L15.503,64c-0.001,0-0.002,0-0.003,0c-0.397,0-0.778-0.157-1.06-0.438 C14.158,63.28,14,62.898,14,62.5V47.496c0-6.422,5.225-11.646,11.647-11.646c4.25,0,8.11,2.342,10.141,5.936 c2.36-2.482,5.624-3.906,9.139-3.906c5.065,0,9.543,2.986,11.548,7.485c3.149-2.223,6.902-3.427,10.775-3.427 c10.339,0,18.75,8.411,18.75,18.75v24.842C86,86.357,85.328,87.029,84.5,87.029z M52,84.029h31V60.688 c0-8.685-7.065-15.75-15.75-15.75c-3.868,0-7.597,1.434-10.499,4.036c-0.391,0.352-0.938,0.473-1.442,0.316 c-0.503-0.155-0.889-0.562-1.015-1.073c-1.068-4.32-4.921-7.338-9.367-7.338c-3.386,0-6.467,1.735-8.242,4.642 c-0.312,0.508-0.892,0.78-1.484,0.704c-0.591-0.082-1.078-0.505-1.239-1.079c-1.046-3.707-4.464-6.296-8.313-6.296 c-4.769,0-8.647,3.879-8.647,8.646v13.501l17.361-0.028c0.001,0,0.002,0,0.003,0c0.397,0,0.778,0.157,1.06,0.438 c0.282,0.281,0.44,0.663,0.44,1.062v8.586l14.639,0.028C51.33,71.085,52,71.756,52,72.583V84.029z"/></g></svg>